<mxfile host="app.diagrams.net" modified="2020-10-30T09:24:36.235Z" agent="5.0 (Windows NT 10.0; Win64; x64) AppleWebKit/537.36 (KHTML, like Gecko) Chrome/86.0.4240.111 Safari/537.36" etag="oeb-i9vyEsfMkn3skOCn" version="13.8.6" type="github">
  <diagram id="HMNT3NJ7cGjLUX8JYcZ2" name="Page-1">
    <mxGraphModel dx="2187" dy="746" grid="0" gridSize="10" guides="1" tooltips="1" connect="1" arrows="1" fold="1" page="1" pageScale="1" pageWidth="827" pageHeight="1169" math="0" shadow="0">
      <root>
        <mxCell id="0" />
        <mxCell id="1" parent="0" />
        <mxCell id="f9UOwdN35FcGCHuNBS2K-84" value="" style="rounded=0;whiteSpace=wrap;html=1;fillColor=#d5e8d4;strokeColor=#82b366;" vertex="1" parent="1">
          <mxGeometry x="228" y="1808" width="317" height="438" as="geometry" />
        </mxCell>
        <mxCell id="f9UOwdN35FcGCHuNBS2K-91" value="" style="rounded=0;whiteSpace=wrap;html=1;fillColor=#fff2cc;strokeColor=#d6b656;" vertex="1" parent="1">
          <mxGeometry x="256" y="1911" width="273" height="300" as="geometry" />
        </mxCell>
        <mxCell id="C2VmExG585s7NIGnA1N3-1" value="Airflow" style="rounded=0;whiteSpace=wrap;html=1;" parent="1" vertex="1">
          <mxGeometry x="240" y="297" width="90" height="45" as="geometry" />
        </mxCell>
        <mxCell id="C2VmExG585s7NIGnA1N3-2" value="Woker(Scrapy)" style="rounded=0;whiteSpace=wrap;html=1;" parent="1" vertex="1">
          <mxGeometry x="240" y="360" width="90" height="50" as="geometry" />
        </mxCell>
        <mxCell id="C2VmExG585s7NIGnA1N3-3" value="Apollo" style="rounded=0;whiteSpace=wrap;html=1;horizontal=0;textDirection=rtl;labelPosition=center;verticalLabelPosition=middle;align=center;verticalAlign=middle;labelBackgroundColor=none;" parent="1" vertex="1">
          <mxGeometry x="178" y="360" width="45" height="133" as="geometry" />
        </mxCell>
        <mxCell id="C2VmExG585s7NIGnA1N3-4" value="DF(SSDB)" style="rounded=0;whiteSpace=wrap;html=1;" parent="1" vertex="1">
          <mxGeometry x="240" y="440" width="89" height="52" as="geometry" />
        </mxCell>
        <mxCell id="C2VmExG585s7NIGnA1N3-5" value="Mongo" style="rounded=0;whiteSpace=wrap;html=1;" parent="1" vertex="1">
          <mxGeometry x="344" y="440" width="70" height="50" as="geometry" />
        </mxCell>
        <mxCell id="C2VmExG585s7NIGnA1N3-6" value="MQ(SSDB)" style="rounded=0;whiteSpace=wrap;html=1;" parent="1" vertex="1">
          <mxGeometry x="344" y="360" width="70" height="50" as="geometry" />
        </mxCell>
        <mxCell id="f9UOwdN35FcGCHuNBS2K-69" style="edgeStyle=orthogonalEdgeStyle;rounded=0;orthogonalLoop=1;jettySize=auto;html=1;exitX=1;exitY=0.5;exitDx=0;exitDy=0;" edge="1" parent="1" source="f9UOwdN35FcGCHuNBS2K-1" target="f9UOwdN35FcGCHuNBS2K-2">
          <mxGeometry relative="1" as="geometry" />
        </mxCell>
        <mxCell id="f9UOwdN35FcGCHuNBS2K-1" value="配置定时任务" style="rounded=0;whiteSpace=wrap;html=1;" vertex="1" parent="1">
          <mxGeometry x="-58" y="737" width="73" height="37" as="geometry" />
        </mxCell>
        <mxCell id="f9UOwdN35FcGCHuNBS2K-71" style="edgeStyle=orthogonalEdgeStyle;rounded=0;orthogonalLoop=1;jettySize=auto;html=1;exitX=1;exitY=0.5;exitDx=0;exitDy=0;entryX=0.5;entryY=0;entryDx=0;entryDy=0;" edge="1" parent="1" source="f9UOwdN35FcGCHuNBS2K-2" target="f9UOwdN35FcGCHuNBS2K-5">
          <mxGeometry relative="1" as="geometry" />
        </mxCell>
        <mxCell id="f9UOwdN35FcGCHuNBS2K-2" value="任务触发" style="rounded=0;whiteSpace=wrap;html=1;" vertex="1" parent="1">
          <mxGeometry x="136" y="737" width="73" height="37" as="geometry" />
        </mxCell>
        <mxCell id="f9UOwdN35FcGCHuNBS2K-6" value="是" style="edgeStyle=orthogonalEdgeStyle;rounded=0;orthogonalLoop=1;jettySize=auto;html=1;exitX=0.5;exitY=1;exitDx=0;exitDy=0;entryX=0.5;entryY=0;entryDx=0;entryDy=0;" edge="1" parent="1" source="f9UOwdN35FcGCHuNBS2K-5" target="f9UOwdN35FcGCHuNBS2K-7">
          <mxGeometry relative="1" as="geometry">
            <mxPoint x="170" y="830" as="targetPoint" />
          </mxGeometry>
        </mxCell>
        <mxCell id="f9UOwdN35FcGCHuNBS2K-9" value="否" style="edgeStyle=orthogonalEdgeStyle;rounded=0;orthogonalLoop=1;jettySize=auto;html=1;exitX=1;exitY=0.5;exitDx=0;exitDy=0;entryX=0.5;entryY=0;entryDx=0;entryDy=0;" edge="1" parent="1" source="f9UOwdN35FcGCHuNBS2K-5" target="f9UOwdN35FcGCHuNBS2K-8">
          <mxGeometry relative="1" as="geometry" />
        </mxCell>
        <mxCell id="f9UOwdN35FcGCHuNBS2K-5" value="增量抓取" style="rhombus;whiteSpace=wrap;html=1;" vertex="1" parent="1">
          <mxGeometry x="267" y="757" width="115" height="29" as="geometry" />
        </mxCell>
        <mxCell id="f9UOwdN35FcGCHuNBS2K-43" style="edgeStyle=orthogonalEdgeStyle;rounded=0;orthogonalLoop=1;jettySize=auto;html=1;exitX=0.5;exitY=1;exitDx=0;exitDy=0;" edge="1" parent="1" source="f9UOwdN35FcGCHuNBS2K-7" target="f9UOwdN35FcGCHuNBS2K-41">
          <mxGeometry relative="1" as="geometry" />
        </mxCell>
        <mxCell id="f9UOwdN35FcGCHuNBS2K-7" value="启动爬虫" style="rounded=0;whiteSpace=wrap;html=1;" vertex="1" parent="1">
          <mxGeometry x="288" y="852" width="73" height="37" as="geometry" />
        </mxCell>
        <mxCell id="f9UOwdN35FcGCHuNBS2K-13" style="edgeStyle=orthogonalEdgeStyle;rounded=0;orthogonalLoop=1;jettySize=auto;html=1;exitX=0.5;exitY=1;exitDx=0;exitDy=0;entryX=1;entryY=0.5;entryDx=0;entryDy=0;" edge="1" parent="1" source="f9UOwdN35FcGCHuNBS2K-8" target="f9UOwdN35FcGCHuNBS2K-7">
          <mxGeometry relative="1" as="geometry" />
        </mxCell>
        <mxCell id="f9UOwdN35FcGCHuNBS2K-8" value="清除去重数据" style="rounded=0;whiteSpace=wrap;html=1;" vertex="1" parent="1">
          <mxGeometry x="457" y="810" width="73" height="37" as="geometry" />
        </mxCell>
        <mxCell id="f9UOwdN35FcGCHuNBS2K-17" value="成功" style="edgeStyle=orthogonalEdgeStyle;rounded=0;orthogonalLoop=1;jettySize=auto;html=1;exitX=0.5;exitY=1;exitDx=0;exitDy=0;" edge="1" parent="1" source="f9UOwdN35FcGCHuNBS2K-15" target="f9UOwdN35FcGCHuNBS2K-27">
          <mxGeometry relative="1" as="geometry">
            <mxPoint x="325" y="1069" as="targetPoint" />
          </mxGeometry>
        </mxCell>
        <mxCell id="f9UOwdN35FcGCHuNBS2K-19" style="edgeStyle=orthogonalEdgeStyle;rounded=0;orthogonalLoop=1;jettySize=auto;html=1;exitX=0;exitY=0.5;exitDx=0;exitDy=0;entryX=0.5;entryY=0;entryDx=0;entryDy=0;" edge="1" parent="1" source="f9UOwdN35FcGCHuNBS2K-15" target="f9UOwdN35FcGCHuNBS2K-31">
          <mxGeometry relative="1" as="geometry">
            <mxPoint x="189" y="1054" as="targetPoint" />
          </mxGeometry>
        </mxCell>
        <mxCell id="f9UOwdN35FcGCHuNBS2K-20" value="失败" style="edgeLabel;html=1;align=center;verticalAlign=middle;resizable=0;points=[];" vertex="1" connectable="0" parent="f9UOwdN35FcGCHuNBS2K-19">
          <mxGeometry x="-0.254" y="-1" relative="1" as="geometry">
            <mxPoint as="offset" />
          </mxGeometry>
        </mxCell>
        <mxCell id="f9UOwdN35FcGCHuNBS2K-15" value="获取url种子" style="rhombus;whiteSpace=wrap;html=1;" vertex="1" parent="1">
          <mxGeometry x="267" y="988" width="115" height="29" as="geometry" />
        </mxCell>
        <mxCell id="f9UOwdN35FcGCHuNBS2K-25" style="edgeStyle=orthogonalEdgeStyle;rounded=0;orthogonalLoop=1;jettySize=auto;html=1;exitX=0.5;exitY=1;exitDx=0;exitDy=0;" edge="1" parent="1" source="f9UOwdN35FcGCHuNBS2K-21" target="f9UOwdN35FcGCHuNBS2K-22">
          <mxGeometry relative="1" as="geometry" />
        </mxCell>
        <mxCell id="f9UOwdN35FcGCHuNBS2K-54" style="edgeStyle=orthogonalEdgeStyle;rounded=0;orthogonalLoop=1;jettySize=auto;html=1;exitX=0.5;exitY=1;exitDx=0;exitDy=0;" edge="1" parent="1" source="f9UOwdN35FcGCHuNBS2K-21" target="f9UOwdN35FcGCHuNBS2K-24">
          <mxGeometry relative="1" as="geometry" />
        </mxCell>
        <mxCell id="f9UOwdN35FcGCHuNBS2K-21" value="获取url内容" style="rounded=0;whiteSpace=wrap;html=1;" vertex="1" parent="1">
          <mxGeometry x="290" y="1139" width="73" height="37" as="geometry" />
        </mxCell>
        <mxCell id="f9UOwdN35FcGCHuNBS2K-63" style="edgeStyle=orthogonalEdgeStyle;rounded=0;orthogonalLoop=1;jettySize=auto;html=1;exitX=0.5;exitY=1;exitDx=0;exitDy=0;" edge="1" parent="1" source="f9UOwdN35FcGCHuNBS2K-22" target="f9UOwdN35FcGCHuNBS2K-60">
          <mxGeometry relative="1" as="geometry" />
        </mxCell>
        <mxCell id="f9UOwdN35FcGCHuNBS2K-22" value="提取页面数据" style="rounded=0;whiteSpace=wrap;html=1;" vertex="1" parent="1">
          <mxGeometry x="246" y="1276" width="73" height="37" as="geometry" />
        </mxCell>
        <mxCell id="f9UOwdN35FcGCHuNBS2K-75" style="edgeStyle=orthogonalEdgeStyle;rounded=0;orthogonalLoop=1;jettySize=auto;html=1;exitX=0.5;exitY=1;exitDx=0;exitDy=0;" edge="1" parent="1" source="f9UOwdN35FcGCHuNBS2K-24" target="f9UOwdN35FcGCHuNBS2K-56">
          <mxGeometry relative="1" as="geometry" />
        </mxCell>
        <mxCell id="f9UOwdN35FcGCHuNBS2K-24" value="生产新的url种子" style="rounded=0;whiteSpace=wrap;html=1;" vertex="1" parent="1">
          <mxGeometry x="402" y="1282" width="73" height="37" as="geometry" />
        </mxCell>
        <mxCell id="f9UOwdN35FcGCHuNBS2K-59" style="edgeStyle=orthogonalEdgeStyle;rounded=0;orthogonalLoop=1;jettySize=auto;html=1;exitX=1;exitY=0.5;exitDx=0;exitDy=0;entryX=1;entryY=0.5;entryDx=0;entryDy=0;" edge="1" parent="1" source="f9UOwdN35FcGCHuNBS2K-26" target="f9UOwdN35FcGCHuNBS2K-41">
          <mxGeometry relative="1" as="geometry">
            <Array as="points">
              <mxPoint x="477" y="1441" />
              <mxPoint x="520" y="1441" />
              <mxPoint x="520" y="933" />
            </Array>
          </mxGeometry>
        </mxCell>
        <mxCell id="f9UOwdN35FcGCHuNBS2K-26" value="保存url种子" style="rounded=0;whiteSpace=wrap;html=1;" vertex="1" parent="1">
          <mxGeometry x="404" y="1415" width="73" height="37" as="geometry" />
        </mxCell>
        <mxCell id="f9UOwdN35FcGCHuNBS2K-29" value="是" style="edgeStyle=orthogonalEdgeStyle;rounded=0;orthogonalLoop=1;jettySize=auto;html=1;exitX=1;exitY=0.5;exitDx=0;exitDy=0;entryX=1;entryY=0.5;entryDx=0;entryDy=0;" edge="1" parent="1" source="f9UOwdN35FcGCHuNBS2K-27" target="f9UOwdN35FcGCHuNBS2K-41">
          <mxGeometry x="-0.865" relative="1" as="geometry">
            <Array as="points">
              <mxPoint x="455" y="1094" />
              <mxPoint x="455" y="933" />
            </Array>
            <mxPoint as="offset" />
          </mxGeometry>
        </mxCell>
        <mxCell id="f9UOwdN35FcGCHuNBS2K-53" style="edgeStyle=orthogonalEdgeStyle;rounded=0;orthogonalLoop=1;jettySize=auto;html=1;exitX=0.5;exitY=1;exitDx=0;exitDy=0;" edge="1" parent="1" source="f9UOwdN35FcGCHuNBS2K-27" target="f9UOwdN35FcGCHuNBS2K-21">
          <mxGeometry relative="1" as="geometry" />
        </mxCell>
        <mxCell id="f9UOwdN35FcGCHuNBS2K-27" value="是否重复" style="rhombus;whiteSpace=wrap;html=1;" vertex="1" parent="1">
          <mxGeometry x="269" y="1079" width="115" height="29" as="geometry" />
        </mxCell>
        <mxCell id="f9UOwdN35FcGCHuNBS2K-33" style="edgeStyle=orthogonalEdgeStyle;rounded=0;orthogonalLoop=1;jettySize=auto;html=1;entryX=0.521;entryY=0.054;entryDx=0;entryDy=0;entryPerimeter=0;" edge="1" parent="1" source="f9UOwdN35FcGCHuNBS2K-31">
          <mxGeometry relative="1" as="geometry">
            <mxPoint x="73.0329999999999" y="1130.998" as="targetPoint" />
          </mxGeometry>
        </mxCell>
        <mxCell id="f9UOwdN35FcGCHuNBS2K-35" value="是" style="edgeLabel;html=1;align=center;verticalAlign=middle;resizable=0;points=[];" vertex="1" connectable="0" parent="f9UOwdN35FcGCHuNBS2K-33">
          <mxGeometry x="-0.0531" y="-1" relative="1" as="geometry">
            <mxPoint as="offset" />
          </mxGeometry>
        </mxCell>
        <mxCell id="f9UOwdN35FcGCHuNBS2K-37" value="否" style="edgeStyle=orthogonalEdgeStyle;rounded=0;orthogonalLoop=1;jettySize=auto;html=1;exitX=0.5;exitY=1;exitDx=0;exitDy=0;" edge="1" parent="1" source="f9UOwdN35FcGCHuNBS2K-31" target="f9UOwdN35FcGCHuNBS2K-36">
          <mxGeometry relative="1" as="geometry" />
        </mxCell>
        <mxCell id="f9UOwdN35FcGCHuNBS2K-31" value="是否正在请求数据" style="rhombus;whiteSpace=wrap;html=1;" vertex="1" parent="1">
          <mxGeometry x="133" y="1073" width="115" height="29" as="geometry" />
        </mxCell>
        <mxCell id="f9UOwdN35FcGCHuNBS2K-44" style="edgeStyle=orthogonalEdgeStyle;rounded=0;orthogonalLoop=1;jettySize=auto;html=1;exitX=0;exitY=0.5;exitDx=0;exitDy=0;entryX=0;entryY=0.5;entryDx=0;entryDy=0;" edge="1" parent="1" source="f9UOwdN35FcGCHuNBS2K-34" target="f9UOwdN35FcGCHuNBS2K-41">
          <mxGeometry relative="1" as="geometry" />
        </mxCell>
        <mxCell id="f9UOwdN35FcGCHuNBS2K-34" value="等待，重置计数器" style="rounded=0;whiteSpace=wrap;html=1;" vertex="1" parent="1">
          <mxGeometry x="30" y="1129" width="73" height="37" as="geometry" />
        </mxCell>
        <mxCell id="f9UOwdN35FcGCHuNBS2K-40" style="edgeStyle=orthogonalEdgeStyle;rounded=0;orthogonalLoop=1;jettySize=auto;html=1;exitX=0.5;exitY=1;exitDx=0;exitDy=0;" edge="1" parent="1" source="f9UOwdN35FcGCHuNBS2K-36" target="f9UOwdN35FcGCHuNBS2K-39">
          <mxGeometry relative="1" as="geometry" />
        </mxCell>
        <mxCell id="f9UOwdN35FcGCHuNBS2K-36" value="等待，计数+1" style="rounded=0;whiteSpace=wrap;html=1;" vertex="1" parent="1">
          <mxGeometry x="154" y="1134" width="73" height="37" as="geometry" />
        </mxCell>
        <mxCell id="f9UOwdN35FcGCHuNBS2K-45" value="是" style="edgeStyle=orthogonalEdgeStyle;rounded=0;orthogonalLoop=1;jettySize=auto;html=1;exitX=0.5;exitY=1;exitDx=0;exitDy=0;entryX=0.5;entryY=0;entryDx=0;entryDy=0;" edge="1" parent="1" source="f9UOwdN35FcGCHuNBS2K-39" target="f9UOwdN35FcGCHuNBS2K-46">
          <mxGeometry relative="1" as="geometry">
            <mxPoint x="191" y="1279" as="targetPoint" />
          </mxGeometry>
        </mxCell>
        <mxCell id="f9UOwdN35FcGCHuNBS2K-47" value="否" style="edgeStyle=orthogonalEdgeStyle;rounded=0;orthogonalLoop=1;jettySize=auto;html=1;exitX=0;exitY=0.5;exitDx=0;exitDy=0;entryX=0;entryY=0.5;entryDx=0;entryDy=0;" edge="1" parent="1" source="f9UOwdN35FcGCHuNBS2K-39" target="f9UOwdN35FcGCHuNBS2K-41">
          <mxGeometry x="-0.9305" relative="1" as="geometry">
            <Array as="points">
              <mxPoint x="-50" y="1218" />
              <mxPoint x="-50" y="933" />
            </Array>
            <mxPoint as="offset" />
          </mxGeometry>
        </mxCell>
        <mxCell id="f9UOwdN35FcGCHuNBS2K-39" value="计数器超过阈值" style="rhombus;whiteSpace=wrap;html=1;" vertex="1" parent="1">
          <mxGeometry x="133" y="1203" width="115" height="29" as="geometry" />
        </mxCell>
        <mxCell id="f9UOwdN35FcGCHuNBS2K-42" style="edgeStyle=orthogonalEdgeStyle;rounded=0;orthogonalLoop=1;jettySize=auto;html=1;exitX=0.5;exitY=1;exitDx=0;exitDy=0;" edge="1" parent="1" source="f9UOwdN35FcGCHuNBS2K-41" target="f9UOwdN35FcGCHuNBS2K-15">
          <mxGeometry relative="1" as="geometry" />
        </mxCell>
        <mxCell id="f9UOwdN35FcGCHuNBS2K-41" value="开始" style="rounded=0;whiteSpace=wrap;html=1;" vertex="1" parent="1">
          <mxGeometry x="288" y="914" width="73" height="37" as="geometry" />
        </mxCell>
        <mxCell id="f9UOwdN35FcGCHuNBS2K-46" value="退出" style="rounded=0;whiteSpace=wrap;html=1;" vertex="1" parent="1">
          <mxGeometry x="-13" y="1446" width="73" height="37" as="geometry" />
        </mxCell>
        <mxCell id="f9UOwdN35FcGCHuNBS2K-76" value="否" style="edgeStyle=orthogonalEdgeStyle;rounded=0;orthogonalLoop=1;jettySize=auto;html=1;exitX=0.5;exitY=1;exitDx=0;exitDy=0;" edge="1" parent="1" source="f9UOwdN35FcGCHuNBS2K-56" target="f9UOwdN35FcGCHuNBS2K-26">
          <mxGeometry relative="1" as="geometry" />
        </mxCell>
        <mxCell id="f9UOwdN35FcGCHuNBS2K-77" value="是" style="edgeStyle=orthogonalEdgeStyle;rounded=0;orthogonalLoop=1;jettySize=auto;html=1;exitX=0;exitY=0.5;exitDx=0;exitDy=0;" edge="1" parent="1" source="f9UOwdN35FcGCHuNBS2K-56" target="f9UOwdN35FcGCHuNBS2K-67">
          <mxGeometry x="-0.5652" relative="1" as="geometry">
            <Array as="points">
              <mxPoint x="370" y="1369" />
            </Array>
            <mxPoint as="offset" />
          </mxGeometry>
        </mxCell>
        <mxCell id="f9UOwdN35FcGCHuNBS2K-56" value="是否重复" style="rhombus;whiteSpace=wrap;html=1;" vertex="1" parent="1">
          <mxGeometry x="382" y="1354" width="115" height="29" as="geometry" />
        </mxCell>
        <mxCell id="f9UOwdN35FcGCHuNBS2K-62" style="edgeStyle=orthogonalEdgeStyle;rounded=0;orthogonalLoop=1;jettySize=auto;html=1;exitX=0.5;exitY=1;exitDx=0;exitDy=0;" edge="1" parent="1" source="f9UOwdN35FcGCHuNBS2K-60" target="f9UOwdN35FcGCHuNBS2K-61">
          <mxGeometry relative="1" as="geometry" />
        </mxCell>
        <mxCell id="f9UOwdN35FcGCHuNBS2K-60" value="解析数据" style="rounded=0;whiteSpace=wrap;html=1;" vertex="1" parent="1">
          <mxGeometry x="246" y="1340" width="73" height="37" as="geometry" />
        </mxCell>
        <mxCell id="f9UOwdN35FcGCHuNBS2K-66" value="否" style="edgeStyle=orthogonalEdgeStyle;rounded=0;orthogonalLoop=1;jettySize=auto;html=1;exitX=0.5;exitY=1;exitDx=0;exitDy=0;" edge="1" parent="1" source="f9UOwdN35FcGCHuNBS2K-61" target="f9UOwdN35FcGCHuNBS2K-65">
          <mxGeometry relative="1" as="geometry" />
        </mxCell>
        <mxCell id="f9UOwdN35FcGCHuNBS2K-68" value="是" style="edgeStyle=orthogonalEdgeStyle;rounded=0;orthogonalLoop=1;jettySize=auto;html=1;exitX=1;exitY=0.5;exitDx=0;exitDy=0;" edge="1" parent="1" source="f9UOwdN35FcGCHuNBS2K-61" target="f9UOwdN35FcGCHuNBS2K-67">
          <mxGeometry x="-0.5556" relative="1" as="geometry">
            <mxPoint as="offset" />
          </mxGeometry>
        </mxCell>
        <mxCell id="f9UOwdN35FcGCHuNBS2K-61" value="是否重复" style="rhombus;whiteSpace=wrap;html=1;" vertex="1" parent="1">
          <mxGeometry x="225" y="1417" width="115" height="29" as="geometry" />
        </mxCell>
        <mxCell id="f9UOwdN35FcGCHuNBS2K-65" value="保存数据" style="rounded=0;whiteSpace=wrap;html=1;" vertex="1" parent="1">
          <mxGeometry x="246" y="1486" width="73" height="37" as="geometry" />
        </mxCell>
        <mxCell id="f9UOwdN35FcGCHuNBS2K-67" value="丢弃数据" style="rounded=0;whiteSpace=wrap;html=1;" vertex="1" parent="1">
          <mxGeometry x="333" y="1483" width="73" height="37" as="geometry" />
        </mxCell>
        <mxCell id="f9UOwdN35FcGCHuNBS2K-81" value="保存任务" style="edgeStyle=orthogonalEdgeStyle;rounded=0;orthogonalLoop=1;jettySize=auto;html=1;exitX=1;exitY=0.5;exitDx=0;exitDy=0;" edge="1" parent="1" source="f9UOwdN35FcGCHuNBS2K-78" target="f9UOwdN35FcGCHuNBS2K-80">
          <mxGeometry relative="1" as="geometry" />
        </mxCell>
        <mxCell id="f9UOwdN35FcGCHuNBS2K-82" value="新建爬虫任务" style="edgeStyle=orthogonalEdgeStyle;rounded=0;orthogonalLoop=1;jettySize=auto;html=1;exitX=0.5;exitY=1;exitDx=0;exitDy=0;" edge="1" parent="1" source="f9UOwdN35FcGCHuNBS2K-78" target="f9UOwdN35FcGCHuNBS2K-79">
          <mxGeometry relative="1" as="geometry" />
        </mxCell>
        <mxCell id="f9UOwdN35FcGCHuNBS2K-78" value="Airflow-WebGUI" style="rounded=1;whiteSpace=wrap;html=1;fillColor=#d5e8d4;strokeColor=#82b366;" vertex="1" parent="1">
          <mxGeometry x="316" y="1648" width="143" height="38" as="geometry" />
        </mxCell>
        <mxCell id="f9UOwdN35FcGCHuNBS2K-97" value="调度爬虫" style="edgeStyle=orthogonalEdgeStyle;rounded=0;orthogonalLoop=1;jettySize=auto;html=1;exitX=0.5;exitY=1;exitDx=0;exitDy=0;" edge="1" parent="1" source="f9UOwdN35FcGCHuNBS2K-79" target="f9UOwdN35FcGCHuNBS2K-86">
          <mxGeometry relative="1" as="geometry" />
        </mxCell>
        <mxCell id="f9UOwdN35FcGCHuNBS2K-79" value="Airflow-Scheduler" style="rounded=1;whiteSpace=wrap;html=1;fillColor=#d5e8d4;strokeColor=#82b366;" vertex="1" parent="1">
          <mxGeometry x="317" y="1731" width="143" height="38" as="geometry" />
        </mxCell>
        <mxCell id="f9UOwdN35FcGCHuNBS2K-83" style="edgeStyle=orthogonalEdgeStyle;rounded=0;orthogonalLoop=1;jettySize=auto;html=1;exitX=0.5;exitY=1;exitDx=0;exitDy=0;exitPerimeter=0;entryX=1;entryY=0.5;entryDx=0;entryDy=0;" edge="1" parent="1" source="f9UOwdN35FcGCHuNBS2K-80" target="f9UOwdN35FcGCHuNBS2K-79">
          <mxGeometry relative="1" as="geometry" />
        </mxCell>
        <mxCell id="f9UOwdN35FcGCHuNBS2K-80" value="" style="shape=cylinder3;whiteSpace=wrap;html=1;boundedLbl=1;backgroundOutline=1;size=8;fillColor=#d5e8d4;strokeColor=#82b366;" vertex="1" parent="1">
          <mxGeometry x="525" y="1685" width="46" height="46" as="geometry" />
        </mxCell>
        <mxCell id="f9UOwdN35FcGCHuNBS2K-85" value="分布式节点1~N" style="text;html=1;strokeColor=none;fillColor=none;align=center;verticalAlign=middle;whiteSpace=wrap;rounded=0;" vertex="1" parent="1">
          <mxGeometry x="235" y="1816" width="97" height="27" as="geometry" />
        </mxCell>
        <mxCell id="f9UOwdN35FcGCHuNBS2K-106" value="call spider" style="edgeStyle=orthogonalEdgeStyle;rounded=0;orthogonalLoop=1;jettySize=auto;html=1;exitX=0.5;exitY=1;exitDx=0;exitDy=0;" edge="1" parent="1" source="f9UOwdN35FcGCHuNBS2K-86" target="f9UOwdN35FcGCHuNBS2K-87">
          <mxGeometry relative="1" as="geometry" />
        </mxCell>
        <mxCell id="f9UOwdN35FcGCHuNBS2K-86" value="Airflow-Executor" style="rounded=1;whiteSpace=wrap;html=1;" vertex="1" parent="1">
          <mxGeometry x="317" y="1841" width="143" height="38" as="geometry" />
        </mxCell>
        <mxCell id="f9UOwdN35FcGCHuNBS2K-87" value="Scrapy-Executor" style="rounded=1;whiteSpace=wrap;html=1;" vertex="1" parent="1">
          <mxGeometry x="319" y="1920" width="143" height="38" as="geometry" />
        </mxCell>
        <mxCell id="f9UOwdN35FcGCHuNBS2K-105" style="edgeStyle=orthogonalEdgeStyle;rounded=0;orthogonalLoop=1;jettySize=auto;html=1;exitX=1;exitY=0.5;exitDx=0;exitDy=0;entryX=0;entryY=0.5;entryDx=0;entryDy=0;" edge="1" parent="1" source="f9UOwdN35FcGCHuNBS2K-88" target="f9UOwdN35FcGCHuNBS2K-104">
          <mxGeometry relative="1" as="geometry" />
        </mxCell>
        <mxCell id="f9UOwdN35FcGCHuNBS2K-108" style="edgeStyle=orthogonalEdgeStyle;rounded=0;orthogonalLoop=1;jettySize=auto;html=1;exitX=1;exitY=0.5;exitDx=0;exitDy=0;" edge="1" parent="1" source="f9UOwdN35FcGCHuNBS2K-88" target="f9UOwdN35FcGCHuNBS2K-107">
          <mxGeometry relative="1" as="geometry" />
        </mxCell>
        <mxCell id="f9UOwdN35FcGCHuNBS2K-88" value="Scrapy-Scheduler" style="rounded=1;whiteSpace=wrap;html=1;" vertex="1" parent="1">
          <mxGeometry x="403" y="2034" width="102" height="39" as="geometry" />
        </mxCell>
        <mxCell id="f9UOwdN35FcGCHuNBS2K-101" style="edgeStyle=orthogonalEdgeStyle;rounded=0;orthogonalLoop=1;jettySize=auto;html=1;exitX=0;exitY=0.5;exitDx=0;exitDy=0;" edge="1" parent="1" source="f9UOwdN35FcGCHuNBS2K-90">
          <mxGeometry relative="1" as="geometry">
            <mxPoint x="154" y="2009" as="targetPoint" />
            <Array as="points">
              <mxPoint x="192" y="2054" />
              <mxPoint x="192" y="2009" />
            </Array>
          </mxGeometry>
        </mxCell>
        <mxCell id="f9UOwdN35FcGCHuNBS2K-114" style="edgeStyle=orthogonalEdgeStyle;rounded=0;orthogonalLoop=1;jettySize=auto;html=1;exitX=0;exitY=0.5;exitDx=0;exitDy=0;entryX=1;entryY=0.5;entryDx=0;entryDy=0;" edge="1" parent="1" source="f9UOwdN35FcGCHuNBS2K-90">
          <mxGeometry relative="1" as="geometry">
            <mxPoint x="154" y="2109" as="targetPoint" />
            <Array as="points">
              <mxPoint x="193" y="2054" />
              <mxPoint x="193" y="2109" />
            </Array>
          </mxGeometry>
        </mxCell>
        <mxCell id="f9UOwdN35FcGCHuNBS2K-90" value="Scrapy-Downloader" style="rounded=1;whiteSpace=wrap;html=1;" vertex="1" parent="1">
          <mxGeometry x="273" y="2034" width="102" height="39" as="geometry" />
        </mxCell>
        <mxCell id="f9UOwdN35FcGCHuNBS2K-93" value="Scrapy-Engine" style="rounded=1;whiteSpace=wrap;html=1;" vertex="1" parent="1">
          <mxGeometry x="271" y="1973" width="230" height="39" as="geometry" />
        </mxCell>
        <mxCell id="f9UOwdN35FcGCHuNBS2K-96" value="Scrapy-Spider" style="rounded=1;whiteSpace=wrap;html=1;" vertex="1" parent="1">
          <mxGeometry x="275.5" y="2095" width="102" height="39" as="geometry" />
        </mxCell>
        <mxCell id="f9UOwdN35FcGCHuNBS2K-110" style="edgeStyle=orthogonalEdgeStyle;rounded=0;orthogonalLoop=1;jettySize=auto;html=1;exitX=1;exitY=0.5;exitDx=0;exitDy=0;entryX=0;entryY=0.5;entryDx=0;entryDy=0;" edge="1" parent="1" source="f9UOwdN35FcGCHuNBS2K-98" target="f9UOwdN35FcGCHuNBS2K-109">
          <mxGeometry relative="1" as="geometry" />
        </mxCell>
        <mxCell id="f9UOwdN35FcGCHuNBS2K-112" style="edgeStyle=orthogonalEdgeStyle;rounded=0;orthogonalLoop=1;jettySize=auto;html=1;exitX=1;exitY=0.5;exitDx=0;exitDy=0;entryX=0;entryY=0.5;entryDx=0;entryDy=0;" edge="1" parent="1" source="f9UOwdN35FcGCHuNBS2K-98" target="f9UOwdN35FcGCHuNBS2K-111">
          <mxGeometry relative="1" as="geometry" />
        </mxCell>
        <mxCell id="f9UOwdN35FcGCHuNBS2K-98" value="Scrapy-Middleware" style="rounded=1;whiteSpace=wrap;html=1;" vertex="1" parent="1">
          <mxGeometry x="403" y="2095" width="102" height="39" as="geometry" />
        </mxCell>
        <mxCell id="f9UOwdN35FcGCHuNBS2K-99" value="代理服务" style="rounded=0;whiteSpace=wrap;html=1;fillColor=#f8cecc;strokeColor=#b85450;" vertex="1" parent="1">
          <mxGeometry x="52" y="2003" width="115" height="72" as="geometry" />
        </mxCell>
        <mxCell id="f9UOwdN35FcGCHuNBS2K-100" value="爬虫进程1~M" style="text;html=1;strokeColor=none;fillColor=none;align=center;verticalAlign=middle;whiteSpace=wrap;rounded=0;" vertex="1" parent="1">
          <mxGeometry x="410" y="2178" width="97" height="27" as="geometry" />
        </mxCell>
        <mxCell id="f9UOwdN35FcGCHuNBS2K-102" value="Chrome Cloud" style="rounded=0;whiteSpace=wrap;html=1;fillColor=#f8cecc;strokeColor=#b85450;" vertex="1" parent="1">
          <mxGeometry x="52" y="2092" width="115" height="72" as="geometry" />
        </mxCell>
        <mxCell id="f9UOwdN35FcGCHuNBS2K-104" value="去重服务" style="rounded=0;whiteSpace=wrap;html=1;fillColor=#fff2cc;strokeColor=#d6b656;" vertex="1" parent="1">
          <mxGeometry x="622" y="1949" width="115" height="72" as="geometry" />
        </mxCell>
        <mxCell id="f9UOwdN35FcGCHuNBS2K-107" value="消息队列" style="rounded=0;whiteSpace=wrap;html=1;fillColor=#d5e8d4;strokeColor=#82b366;" vertex="1" parent="1">
          <mxGeometry x="622" y="2045" width="115" height="72" as="geometry" />
        </mxCell>
        <mxCell id="f9UOwdN35FcGCHuNBS2K-109" value="统计监控服务" style="rounded=0;whiteSpace=wrap;html=1;fillColor=#fff2cc;strokeColor=#d6b656;" vertex="1" parent="1">
          <mxGeometry x="622" y="2145" width="115" height="72" as="geometry" />
        </mxCell>
        <mxCell id="f9UOwdN35FcGCHuNBS2K-111" value="其他服务" style="rounded=0;whiteSpace=wrap;html=1;fillColor=#f8cecc;strokeColor=#b85450;" vertex="1" parent="1">
          <mxGeometry x="624" y="2249" width="115" height="72" as="geometry" />
        </mxCell>
        <mxCell id="f9UOwdN35FcGCHuNBS2K-115" value="" style="rounded=1;whiteSpace=wrap;html=1;fillColor=#f8cecc;strokeColor=#b85450;" vertex="1" parent="1">
          <mxGeometry x="630" y="1641" width="35" height="30" as="geometry" />
        </mxCell>
        <mxCell id="f9UOwdN35FcGCHuNBS2K-116" value="" style="rounded=1;whiteSpace=wrap;html=1;fillColor=#fff2cc;strokeColor=#d6b656;" vertex="1" parent="1">
          <mxGeometry x="630" y="1685" width="35" height="30" as="geometry" />
        </mxCell>
        <mxCell id="f9UOwdN35FcGCHuNBS2K-117" value="" style="rounded=1;whiteSpace=wrap;html=1;fillColor=#d5e8d4;strokeColor=#82b366;" vertex="1" parent="1">
          <mxGeometry x="630" y="1731" width="35" height="30" as="geometry" />
        </mxCell>
        <mxCell id="f9UOwdN35FcGCHuNBS2K-118" value="流程设计，迭代开发" style="text;html=1;strokeColor=none;fillColor=none;align=center;verticalAlign=middle;whiteSpace=wrap;rounded=0;" vertex="1" parent="1">
          <mxGeometry x="684" y="1646" width="113" height="19" as="geometry" />
        </mxCell>
        <mxCell id="f9UOwdN35FcGCHuNBS2K-119" value="二次开发，功能扩展" style="text;html=1;strokeColor=none;fillColor=none;align=left;verticalAlign=middle;whiteSpace=wrap;rounded=0;" vertex="1" parent="1">
          <mxGeometry x="689" y="1690" width="112" height="17" as="geometry" />
        </mxCell>
        <mxCell id="f9UOwdN35FcGCHuNBS2K-120" value="直接使用、轻度改造" style="text;html=1;strokeColor=none;fillColor=none;align=left;verticalAlign=middle;whiteSpace=wrap;rounded=0;" vertex="1" parent="1">
          <mxGeometry x="691" y="1738" width="114" height="20" as="geometry" />
        </mxCell>
        <mxCell id="f9UOwdN35FcGCHuNBS2K-121" value="Pipeline" style="rounded=1;whiteSpace=wrap;html=1;" vertex="1" parent="1">
          <mxGeometry x="275.5" y="2156" width="102" height="39" as="geometry" />
        </mxCell>
      </root>
    </mxGraphModel>
  </diagram>
</mxfile>
